# Blender 3.5.0
# www.blender.org
mtllib prediotom.mtl
o Cube
v 3.974170 5.195196 -1.000000
v 3.974170 0.002964 -1.000000
v 3.974170 5.195196 1.000000
v 3.974170 0.002964 1.000000
v -1.855191 5.195196 -1.000000
v -1.855191 0.002964 -1.000000
v -1.855191 5.195196 1.000000
v -1.855191 0.002964 1.000000
v 4.214823 5.177701 -1.145508
v 4.214823 5.177701 1.145508
v -2.095843 5.177701 -1.145508
v -2.095843 5.177701 1.145508
v 4.214823 5.453151 1.145508
v -2.095843 5.453151 1.145508
v 4.214823 5.453151 -1.145508
v -2.095843 5.453151 -1.145508
vn -0.0000 -0.0000 1.0000
vn -1.0000 -0.0000 -0.0000
vn -0.0000 -1.0000 -0.0000
vn 1.0000 -0.0000 -0.0000
vn -0.0000 -0.0000 -1.0000
vn -0.0000 1.0000 -0.0000
vt 0.693027 0.554231
vt 0.687674 0.554231
vt 0.982479 0.951582
vt 0.693027 0.559585
vt 0.982476 0.015198
vt 0.687674 0.559585
vt 0.693027 0.548877
vt 0.682320 0.554231
vt 0.687674 0.548877
vt 0.016570 0.951580
vt 0.693027 0.543523
vt 0.016567 0.015194
vt 0.687674 0.543523
vt 0.682320 0.559585
vt 0.585936 0.172440
vt 0.585525 0.172204
vt 0.585936 0.171672
vt 0.585380 0.172152
vt 0.585530 0.172203
vt 0.585207 0.172311
vt 0.585424 0.172238
vt 0.585936 0.171672
vt 0.585530 0.172203
vt 0.585380 0.172152
vt 0.585514 0.172110
vt 0.585465 0.172225
vt 0.585936 0.172440
vt 0.585525 0.172204
vt 0.585509 0.172112
vt 0.585479 0.172220
s 0
usemtl Material
f 4/5/1 3/3/1 7/10/1 8/12/1
f 8/13/2 7/11/2 5/7/2 6/9/2
f 6/8/3 2/2/3 4/6/3 8/14/3
f 2/2/4 1/1/4 3/4/4 4/6/4
f 6/9/5 5/7/5 1/1/5 2/2/5
f 10/17/4 9/15/4 15/27/4 13/22/4
f 15/28/6 16/29/6 14/25/6 13/23/6
f 9/16/5 11/20/5 16/30/5 15/28/5
f 12/21/1 10/18/1 13/24/1 14/26/1
f 11/20/2 12/21/2 14/26/2 16/30/2
f 10/19/3 12/21/3 11/20/3 9/16/3
