# Blender 3.5.0
# www.blender.org
mtllib predioamarelo.mtl
o Cube
v 1.852630 5.719341 -1.000000
v 1.852630 0.002964 -1.000000
v 1.852630 5.719341 1.000000
v 1.852630 0.002964 1.000000
v -1.855191 5.719341 -1.000000
v -1.855191 0.002964 -1.000000
v -1.855191 5.719341 1.000000
v -1.855191 0.002964 1.000000
v 2.093282 5.701847 -1.145508
v 2.093282 5.701847 1.145508
v -2.095843 5.701847 -1.145508
v -2.095843 5.701847 1.145508
v 2.093282 5.977296 1.145508
v -2.095843 5.977296 1.145508
v 2.093282 5.977296 -1.145508
v -2.095843 5.977296 -1.145508
vn -0.0000 -0.0000 1.0000
vn -1.0000 -0.0000 -0.0000
vn -0.0000 -1.0000 -0.0000
vn 1.0000 -0.0000 -0.0000
vn -0.0000 -0.0000 -1.0000
vn -0.0000 1.0000 -0.0000
vt 0.693027 0.490246
vt 0.687674 0.490246
vt 0.982479 0.951582
vt 0.693027 0.495600
vt 0.982476 0.015198
vt 0.687674 0.495600
vt 0.693027 0.484892
vt 0.682320 0.490246
vt 0.687674 0.484892
vt 0.016570 0.951580
vt 0.693027 0.479539
vt 0.016567 0.015194
vt 0.687674 0.479539
vt 0.682320 0.495600
vt 0.512889 0.253662
vt 0.565177 0.282597
vt 0.512889 0.259016
vt 0.512889 0.248308
vt 0.427013 0.282596
vt 0.512889 0.242954
vt 0.512889 0.259016
vt 0.565177 0.282597
vt 0.518242 0.259016
vt 0.427013 0.282596
vt 0.512889 0.242954
vt 0.512889 0.253662
vt 0.518242 0.253662
vt 0.512889 0.248308
s 0
usemtl Material
f 4/5/1 3/3/1 7/10/1 8/12/1
f 8/13/2 7/11/2 5/7/2 6/9/2
f 6/8/3 2/2/3 4/6/3 8/14/3
f 2/2/4 1/1/4 3/4/4 4/6/4
f 6/9/5 5/7/5 1/1/5 2/2/5
f 10/17/4 9/15/4 15/26/4 13/21/4
f 15/26/6 16/27/6 14/23/6 13/21/6
f 9/15/5 11/18/5 16/28/5 15/26/5
f 12/19/1 10/16/1 13/22/1 14/24/1
f 11/18/2 12/20/2 14/25/2 16/28/2
f 10/17/3 12/20/3 11/18/3 9/15/3
