# Blender 3.5.0
# www.blender.org
mtllib prediomarrom.mtl
o Cube
v 2.307753 2.860508 -1.000000
v 2.307753 0.002964 -1.000000
v 2.307753 2.860508 1.000000
v 2.307753 0.002964 1.000000
v -1.000000 2.860508 -1.000000
v -1.000000 0.002964 -1.000000
v -1.000000 2.860508 1.000000
v -1.000000 0.002964 1.000000
v 2.548405 2.843014 -1.145508
v 2.548405 2.843014 1.145508
v -1.240653 2.843014 -1.145508
v -1.240653 2.843014 1.145508
v 2.548405 3.118464 1.145508
v -1.240653 3.118464 1.145508
v 2.548405 3.118464 -1.145508
v -1.240653 3.118464 -1.145508
vn -0.0000 -0.0000 1.0000
vn -1.0000 -0.0000 -0.0000
vn -0.0000 -1.0000 -0.0000
vn 1.0000 -0.0000 -0.0000
vn -0.0000 -0.0000 -1.0000
vn -0.0000 1.0000 -0.0000
vt 0.932452 0.509310
vt 0.927099 0.509310
vt 0.982479 0.538245
vt 0.932452 0.514664
vt 0.982476 0.055038
vt 0.927099 0.514664
vt 0.932452 0.503957
vt 0.921745 0.509310
vt 0.927099 0.503957
vt 0.785010 0.538244
vt 0.932452 0.498603
vt 0.785007 0.055034
vt 0.927099 0.498603
vt 0.921745 0.514664
vt 0.932452 0.666801
vt 0.984741 0.695736
vt 0.932452 0.672154
vt 0.932452 0.661447
vt 0.785010 0.695734
vt 0.932452 0.656093
vt 0.932452 0.672154
vt 0.984741 0.695736
vt 0.937806 0.672154
vt 0.785010 0.695734
vt 0.932452 0.656093
vt 0.932452 0.666801
vt 0.937806 0.666801
vt 0.932452 0.661447
s 0
usemtl Material
f 4/5/1 3/3/1 7/10/1 8/12/1
f 8/13/2 7/11/2 5/7/2 6/9/2
f 6/8/3 2/2/3 4/6/3 8/14/3
f 2/2/4 1/1/4 3/4/4 4/6/4
f 6/9/5 5/7/5 1/1/5 2/2/5
f 10/17/4 9/15/4 15/26/4 13/21/4
f 15/26/6 16/27/6 14/23/6 13/21/6
f 9/15/5 11/18/5 16/28/5 15/26/5
f 12/19/1 10/16/1 13/22/1 14/24/1
f 11/18/2 12/20/2 14/25/2 16/28/2
f 10/17/3 12/20/3 11/18/3 9/15/3
