# Blender 3.5.0
# www.blender.org
mtllib rua.mtl
o Cube
v 4.257761 0.023966 -1.671554
v 4.257761 -0.023966 -1.671554
v 4.257761 0.023966 1.671554
v 4.257761 -0.023966 1.671554
v -4.257761 0.023966 -1.671554
v -4.257761 -0.023966 -1.671554
v -4.257761 0.023966 1.671554
v -4.257761 -0.023966 1.671554
vn -0.0000 1.0000 -0.0000
vn -0.0000 -0.0000 1.0000
vn -1.0000 -0.0000 -0.0000
vn -0.0000 -1.0000 -0.0000
vn 1.0000 -0.0000 -0.0000
vn -0.0000 -0.0000 -1.0000
vt 0.000000 0.006974
vt 0.379416 0.927112
vt 0.395631 0.927112
vt 0.000000 1.000844
vt 0.379416 0.910897
vt 0.395631 0.910897
vt 1.000000 0.006974
vt 0.379416 0.943327
vt 0.411847 0.927112
vt 0.395631 0.943327
vt 1.000000 1.000844
vt 0.379416 0.894681
vt 0.379416 0.959543
vt 0.395631 0.894681
vt 0.395631 0.959543
vt 0.411847 0.910897
s 0
usemtl Material
f 1/1/1 5/7/1 7/11/1 3/4/1
f 4/6/2 3/5/2 7/12/2 8/14/2
f 8/15/3 7/13/3 5/8/3 6/10/3
f 6/9/4 2/3/4 4/6/4 8/16/4
f 2/3/5 1/2/5 3/5/5 4/6/5
f 6/10/6 5/8/6 1/2/6 2/3/6
