# Blender 3.5.0
# www.blender.org
mtllib cartman2.mtl
o Shape_IndexedFaceSet.324
v 0.000000 29.011427 16.319172
v -11.199940 38.234909 13.025072
v 0.000000 39.552551 15.660359
v -11.199940 23.740860 10.389787
v 11.199940 23.740860 10.389787
v 11.199940 18.470299 -0.151340
v 0.000000 18.470299 9.730976
v 0.000000 22.423222 13.025073
v -18.446968 25.058502 1.825114
v 18.446968 25.058502 1.825114
v 1.194025 0.065051 10.226118
v 1.317643 9.170059 -7.562039
v 1.317643 9.170061 6.932017
v -16.799919 6.010477 10.286139
v 17.129326 22.353676 -12.197521
v 0.000000 14.440620 -17.444338
v -24.705761 14.575142 -0.254989
v 0.000000 19.059576 13.496475
v 0.000000 12.598682 16.215525
v -17.129345 12.598680 11.603782
v 17.129345 12.598680 11.603782
v 15.482276 20.377214 10.202366
v 0.000000 2.716376 15.556713
v 0.000000 25.647776 -12.856354
v 13.835226 27.624237 -0.338751
v 13.176414 44.823112 6.436873
v 0.000000 50.752499 -2.127799
v 7.905841 47.458389 -2.786631
v 0.000000 48.117210 4.460398
v -7.905841 47.458389 -2.786631
v -1.194025 0.065051 10.226118
v -1.194025 0.065048 -9.538494
v 14.699846 0.065049 -7.562039
v 17.458752 8.907907 -7.532020
v 17.993946 0.065050 0.673218
v 17.458752 9.170061 6.932017
v 16.799919 6.010477 10.286139
v 0.000000 2.581855 -16.126692
v -13.835226 28.311695 -0.338751
v -8.894078 23.671316 7.567089
v 0.000000 26.965416 -0.997583
v 8.894078 23.671316 7.567089
v 0.000000 22.353674 9.543545
v 17.788157 41.529015 -4.104253
v -17.788157 41.529015 -4.104253
v -5.270554 48.117210 1.825111
v 18.446968 36.258446 7.095686
v 11.199940 28.352604 12.366241
v -11.199940 28.352604 12.366241
v 11.199940 38.234909 13.025072
v -18.446968 36.258446 7.095686
v 0.000000 46.140759 10.389783
v 21.082256 22.353676 -0.997582
v -15.482276 20.377214 10.202366
v -17.129326 22.353676 -12.197521
v -21.082256 23.041134 -0.997582
v -17.788157 23.699955 3.614160
v 16.470493 5.217137 -10.197327
v 23.058710 5.613808 -0.614405
v 24.705761 14.575142 -0.254989
v -23.058710 5.613808 -0.614405
v -1.317643 9.170061 6.932017
v -17.458752 9.170061 6.932017
v -14.699846 0.065049 -7.562039
v -17.993946 0.065050 0.673218
v -17.458752 8.907907 -7.532020
v 17.129345 14.440621 -12.173783
v -16.470493 5.217137 -10.197327
v -17.129345 14.440621 -12.173783
v -11.199940 27.034964 -15.304211
v -20.423424 32.305527 -0.810153
v 0.000000 38.234909 -17.939480
v 11.199940 27.034964 -15.304211
v 18.446968 29.670242 -9.374825
v -11.199940 38.234909 -13.986568
v 0.000000 47.458389 -10.033640
v -18.446968 29.670242 -9.374825
v -11.199940 18.470299 -0.151340
v 0.000000 16.493837 -4.104250
v 20.423424 32.305527 -0.810153
v 0.000000 26.376141 -17.280666
v 11.199940 38.234909 -13.986568
v 14.699846 0.065051 7.590831
v 1.194025 0.065048 -9.538494
v -1.317643 9.170059 -7.562039
v -14.699846 0.065051 7.590831
v 17.788157 27.032124 -4.950493
v 17.788157 25.055664 3.614160
v -17.788157 25.676414 -4.950493
v 5.270554 48.117210 1.825111
v -13.176414 44.823112 6.436873
v -5.270574 47.458389 -7.727780
v 5.270574 47.458389 -7.727780
v 18.806683 25.475014 -0.338750
v 30.272835 19.139854 -0.964029
v 28.484564 17.204187 -6.234582
v 24.460960 12.848939 -4.258126
v 19.921917 20.856937 -4.950492
v 22.212080 22.550564 -5.575770
v 32.012444 15.023378 -3.647174
v 31.452385 11.504554 -0.682481
v 18.806683 25.475014 -0.338750
v 30.272835 19.139854 -0.964029
v 20.553230 16.685942 -0.997581
v 27.988838 10.668128 -3.647173
v 32.012444 15.023376 2.941024
v 27.988838 10.668129 2.941025
v 28.484564 17.204187 -6.234582
v 24.460960 12.848939 -4.258126
v 19.921917 20.856937 -4.950492
v 28.484566 17.204187 4.965357
v 18.580719 19.405190 3.614161
v 22.212080 22.550564 -5.575770
v 24.460960 12.848940 2.988904
v -28.915510 11.245595 2.941025
v -32.391243 16.049437 -3.647174
v -30.173315 19.929180 -0.964029
v -18.033720 24.852310 -0.338750
v -20.815546 16.334106 -0.997581
v -18.532946 18.798828 3.614161
v -32.391243 16.049437 2.941023
v -28.628548 17.794140 4.965357
v -28.628548 17.794144 -6.234583
v -32.254646 12.488942 -0.682481
v -28.915510 11.245595 -3.647173
v -25.152817 12.990300 -4.258126
v -25.152817 12.990300 2.988903
v -19.691519 20.400105 -4.950492
v -21.763454 22.354664 -5.575770
vn -0.5138 -0.2352 0.8251
vn -0.0000 -0.2088 0.9780
vn -0.4517 0.2816 0.8466
vn -0.0000 0.3643 0.9313
vn 0.5138 -0.2352 0.8251
vn 0.4517 0.2816 0.8466
vn -0.0000 -0.5393 0.8421
vn 0.5095 -0.5541 0.6583
vn -0.5095 -0.5541 0.6583
vn -0.8368 -0.5177 0.1782
vn -0.4570 -0.8889 -0.0312
vn -0.0000 -0.8592 0.5117
vn 0.4570 -0.8889 -0.0312
vn 0.8368 -0.5177 0.1782
vn 0.5377 -0.4805 0.6928
vn -0.4114 -0.6567 0.6321
vn -0.7418 -0.6700 0.0275
vn -0.7447 0.0309 0.6667
vn -0.7306 -0.0425 -0.6815
vn 0.7447 0.0309 0.6667
vn -0.5377 -0.4805 0.6928
vn 0.4114 -0.6567 0.6321
vn -0.5515 -0.5194 -0.6527
vn -0.7693 0.2266 0.5974
vn -0.7484 0.1504 -0.6459
vn 0.7418 -0.6700 0.0275
vn -0.6006 0.0363 0.7987
vn -0.7785 -0.6273 -0.0201
vn -0.5451 -0.5902 0.5954
vn -0.0000 0.0844 -0.9964
vn -0.5343 0.4612 -0.7084
vn 0.0074 0.7733 -0.6340
vn 0.5283 0.4634 -0.7114
vn 0.6050 -0.0886 -0.7913
vn 0.9951 0.0905 0.0390
vn -0.9960 0.0804 0.0390
vn -0.6050 -0.0886 -0.7913
vn -0.0434 0.9913 -0.1239
vn -0.4525 0.5096 0.7319
vn 0.2013 0.9702 -0.1348
vn -0.0000 0.1366 0.9906
vn -0.0000 0.5635 0.8261
vn 0.6006 0.0363 0.7987
vn 0.4491 0.5097 0.7338
vn -0.0000 -0.7044 0.7098
vn -0.4084 0.8872 0.2147
vn 0.0983 0.9398 0.3273
vn 0.0578 0.8337 0.5492
vn -0.0000 0.8381 0.5455
vn -0.5345 0.7544 0.3811
vn -0.0000 0.9385 0.3452
vn -0.2749 0.9344 0.2263
vn -0.3466 0.8145 -0.4652
vn -0.7874 0.5679 -0.2398
vn -0.4295 0.8979 -0.0963
vn 0.5345 0.7544 0.3811
vn 0.4295 0.8979 -0.0963
vn 0.2749 0.9344 0.2263
vn 0.3466 0.8145 -0.4652
vn 0.7874 0.5679 -0.2398
vn 0.4910 0.4004 -0.7737
vn -0.0000 1.0000 -0.0072
vn -0.0000 0.7809 -0.6246
vn 0.5515 -0.5194 -0.6527
vn 0.7306 -0.0425 -0.6815
vn 0.4092 -0.6719 -0.6173
vn 0.7785 -0.6273 -0.0201
vn 0.5451 -0.5902 0.5954
vn -0.0000 -0.7158 -0.6983
vn 0.5106 -0.6511 -0.5616
vn -0.5106 -0.6511 -0.5616
vn -0.0421 0.8224 0.5674
vn 0.0191 0.9879 0.1538
vn 0.5108 0.3256 0.7957
vn 1.0000 -0.0054 0.0043
vn 0.8594 0.1579 0.4862
vn -1.0000 -0.0054 0.0043
vn -0.8594 0.1579 0.4862
vn -0.0000 0.8085 0.5885
vn -0.7898 0.6112 0.0520
vn -0.5035 0.7248 0.4702
vn 0.7693 0.2266 0.5974
vn -0.4092 -0.6719 -0.6173
vn 0.7484 0.1504 -0.6459
vn -0.0000 0.3448 -0.9387
vn 0.8371 -0.2160 -0.5026
vn 0.4455 -0.4099 -0.7959
vn -0.0000 -0.9635 -0.2676
vn -0.4455 -0.4099 -0.7959
vn -0.8371 -0.2160 -0.5026
vn -0.4910 0.4004 -0.7737
vn -0.0000 -0.4650 -0.8853
vn -0.4627 0.7774 -0.4260
vn -0.3859 -0.7247 -0.5709
vn 0.5719 -0.0811 -0.8163
vn 0.7901 0.6128 -0.0117
vn 0.6192 0.7699 0.1543
vn 0.0325 0.6074 -0.7937
vn 0.4295 0.2365 -0.8715
vn 0.0051 -0.8292 0.5589
vn 0.0166 -0.8533 -0.5212
vn 0.7340 -0.6781 -0.0367
vn 0.8601 -0.0056 -0.5101
vn -0.3860 -0.7247 -0.5708
vn 0.6191 0.7700 0.1543
vn 0.3043 0.2870 0.9083
vn 0.1125 -0.9884 -0.1023
vn -0.5061 -0.6565 0.5593
vn 0.8393 0.0186 0.5434
vn 0.6046 0.0810 0.7924
vn -0.4929 0.8700 -0.0118
vn -0.8311 0.1185 0.5434
vn -0.2679 0.3212 0.9083
vn -0.1039 -0.8227 0.5589
vn 0.4242 -0.7122 0.5593
vn -0.8096 -0.5858 -0.0367
vn -0.8546 0.0970 -0.5101
vn -0.1182 -0.8452 -0.5212
vn -0.5907 0.1525 0.7924
vn -0.2295 -0.9679 -0.1023
vn 0.0401 0.6070 -0.7937
vn -0.5230 0.8383 0.1543
vn 0.5363 -0.6113 -0.5820
vn -0.0078 0.4402 -0.8979
vn -0.3983 0.2860 -0.8715
vn -0.0078 0.4402 -0.8978
vt 0.571037 1.000000
vt 0.854828 0.501985
vt 0.429288 0.502249
vt 0.026732 0.968750
vt 0.021126 0.094713
vt 0.571037 0.502249
vt 0.035592 0.968750
vt 0.713078 1.000000
vt 0.356309 0.830487
vt 0.996577 1.000000
vt 0.356309 0.830487
vt 0.356309 1.092561
vt 0.026732 0.099121
vt 0.053310 0.125000
vt 0.053311 0.062486
vt 0.426891 1.131872
vt 0.035592 0.062486
vt 0.854828 1.000000
vt 0.426891 0.909109
vt 0.282013 0.725657
vt 0.019448 0.100999
vt 0.282013 0.725657
vt 0.028480 0.100999
vt 0.088748 0.991211
vt 0.079888 0.926452
vt 0.088748 0.926452
vt 0.106465 0.937500
vt 0.159623 0.937499
vt 0.141904 0.499992
vt 0.071029 0.124987
vt 0.106467 0.187488
vt 0.124185 0.187488
vt 0.212778 0.312490
vt 0.212778 0.687495
vt 0.106465 0.687500
vt 0.159623 0.687495
vt 0.265934 0.687495
vt 0.265934 0.312490
vt 0.141904 0.499992
vt 0.212778 0.937499
vt 0.106465 0.125000
vt 0.106465 0.062500
vt 0.088748 0.062486
vt 0.248216 0.187488
vt 0.230493 0.125000
vt 0.088746 0.125000
vt 0.042651 0.589355
vt 0.044451 0.843748
vt 0.042738 0.589227
vt 0.035592 0.937499
vt 0.042236 0.493652
vt 0.042323 0.493523
vt 0.035592 0.937499
vt 0.025348 0.484375
vt 0.035592 0.937499
vt 0.016627 0.493652
vt 0.016679 0.493523
vt 0.026732 0.937499
vt 0.088748 0.991211
vt 0.079888 0.991211
vt 0.071029 0.991211
vt 0.079888 0.991211
vt 0.079888 0.926452
vt 0.079888 0.991211
vt 0.079887 0.926758
vt 0.088748 0.926452
vt 0.079888 0.926452
vt 0.141904 0.499992
vt 0.265934 0.937499
vt 0.141904 0.499992
vt 0.106467 0.187488
vt 0.088748 0.124987
vt 0.177338 0.062500
vt 0.124185 0.124987
vt 0.106467 0.062486
vt 0.248216 0.062486
vt 0.265930 0.062500
vt 0.212778 -0.000015
vt 0.050905 0.566461
vt 0.050818 0.566895
vt 0.053311 0.843748
vt 0.006505 0.566461
vt 0.017873 0.843750
vt 0.006384 0.566895
vt 0.021472 0.488281
vt 0.021576 0.488273
vt 0.031699 0.937499
vt 0.028393 0.093262
vt 0.053311 0.968750
vt 0.712786 1.000000
vt 0.996577 0.501985
vt 0.341450 0.568414
vt 0.026802 0.104845
vt 0.429288 1.000000
vt 0.713078 0.501985
vt 0.341450 0.568414
vt 0.021126 0.104662
vt 0.712786 0.502249
vt 0.026732 0.094727
vt 0.044451 0.968750
vt 0.017873 0.968750
vt 0.019448 0.093065
vt 0.035592 0.843748
vt 0.028705 0.613642
vt 0.230497 0.187488
vt 0.071028 0.125000
vt 0.165130 0.332019
vt 0.159623 0.312490
vt 0.106465 0.312500
vt 0.106467 0.124987
vt 0.106467 0.124987
vt 0.088748 0.124987
vt 0.141904 0.499992
vt 0.071029 0.249989
vt 0.141904 0.499992
vt 0.230493 0.312500
vt 0.071029 0.249989
vt 0.230497 0.249989
vt 0.071028 0.187500
vt 0.141904 0.499992
vt 0.124185 0.499992
vt 0.088748 0.926452
vt 0.088748 0.926452
vt 0.079888 0.926452
vt 0.071029 0.991211
vt 0.071029 0.991211
vt 0.079888 0.991211
vt 0.079888 0.926452
vt 0.071029 0.187488
vt 0.141904 0.499992
vt 0.106467 0.249989
vt 0.106467 0.187488
vt 0.026732 0.968750
vt 0.021334 0.086914
vt 0.017873 0.062500
vt 0.026732 0.968750
vt 0.018738 0.090806
vt 0.035591 0.843750
vt 0.028670 0.519043
vt 0.026455 0.086914
vt 0.044451 0.968750
vt 0.053311 0.062486
vt 0.028393 0.088867
vt 0.053311 0.968750
vt 0.017873 0.843750
vt 0.014551 0.520020
vt 0.028705 0.493828
vt 0.035592 0.937499
vt 0.017873 0.968750
vt 0.019448 0.088487
vt 0.356309 1.092561
vt 0.017873 0.125000
vt 0.021057 0.099121
vt 0.017873 0.062486
vt 0.035592 0.124987
vt 0.029085 0.090820
vt 0.053311 0.968750
vt 0.035591 0.968750
vt 0.035592 0.062486
vt 0.042738 0.519890
vt 0.042651 0.520020
vt 0.044451 0.843748
vt 0.088748 0.991211
vt 0.079887 0.991211
vt 0.071029 0.991211
vt 0.079888 0.926452
vt 0.088748 0.991211
vt 0.079888 0.991211
vt 0.088748 0.187488
vt 0.172791 0.332019
vt 0.248216 0.187488
vt 0.164172 0.332019
vt 0.088748 0.187488
vt 0.032961 0.488770
vt 0.035592 0.937499
vt 0.014551 0.589355
vt 0.026732 0.843748
vt 0.014672 0.589227
vt 0.022441 0.493645
vt 0.030972 0.937499
vt 0.034622 0.494141
vt 0.034727 0.493706
vt 0.035592 0.937499
vt 0.088746 0.125000
vt 0.151176 0.483398
vt 0.144116 0.577148
vt 0.151176 0.545898
vt 0.088748 0.187488
vt 0.088748 0.124987
vt 0.035592 0.968750
vt 0.035592 0.968750
vt 0.088746 0.125000
vt 0.026732 0.937500
vt 0.106467 0.187488
vt 0.071028 0.125000
vt 0.035592 0.968750
vt 0.035592 0.968750
vt 0.035592 0.968750
vt 0.017873 0.937499
vt 0.088748 0.187488
vt 0.017873 0.968750
vt 0.088748 0.249989
vt 0.088748 0.187488
vt 0.035591 0.937500
vt 0.106467 0.187488
vt 0.088748 0.124987
vt 0.088748 0.124987
vt 0.035591 0.968750
vt 0.106467 0.187488
vt 0.035592 0.968750
vt 0.035592 0.968750
vt 0.151176 0.483398
vt 0.035591 0.937500
vt 0.106467 0.187488
vt 0.088748 0.124987
vt 0.106467 0.124987
vt 0.088748 0.124987
vt 0.035592 0.968750
vt 0.035592 0.937499
vt 0.106467 0.187488
vt 0.144116 0.577148
vt 0.017873 0.968750
vt 0.088748 0.187488
vt 0.035592 0.968750
vt 0.035592 0.968750
vt 0.151176 0.545898
vt 0.088748 0.249989
vt 0.017873 0.937499
vt 0.212775 0.687500
vt 0.035592 0.968750
vt 0.106465 0.187500
vt 0.088748 0.187488
vt 0.088748 0.124987
s 1
usemtl cartman_body
f 49/94/1 1/1/2 2/3/3
f 2/3/3 1/1/2 3/6/4
f 48/90/5 50/98/6 1/1/2
f 1/1/2 50/98/6 3/6/4
f 8/18/7 48/91/5 1/2/2
f 49/95/1 8/18/7 1/2/2
f 48/91/5 8/18/7 5/10/8
f 8/18/7 49/95/1 4/8/9
f 9/20/10 78/151/11 4/9/9
f 4/9/9 78/151/11 7/16/12
f 5/11/8 6/12/13 10/22/14
f 5/11/8 7/16/12 6/12/13
f 4/9/9 7/16/12 8/19/7
f 9/20/10 4/9/9 49/96/1
f 5/11/8 10/22/14 48/92/5
f 7/16/12 5/11/8 8/19/7
f 31/59/15 86/167/16 65/127/17
f 65/126/17 63/123/18 66/128/19
f 36/67/20 11/24/21 83/163/22
f 84/165/23 13/26/24 12/25/25
f 35/64/26 83/163/22 11/24/21
f 20/35/27 61/121/28 14/27/29
f 16/31/30 55/110/31 24/41/32
f 15/30/33 16/31/30 24/41/32
f 16/31/30 15/30/33 67/129/34
f 60/119/35 67/129/34 15/30/33
f 17/32/36 55/110/31 69/132/37
f 16/31/30 69/132/37 55/110/31
f 61/121/28 20/35/27 17/32/36
f 60/119/35 15/30/33 53/106/38
f 17/32/36 20/35/27 54/109/39
f 17/32/36 54/109/39 56/111/40
f 54/108/39 19/34/41 18/33/42
f 19/34/41 54/108/39 20/36/27
f 19/34/41 21/37/43 22/38/44
f 19/34/41 22/38/44 18/33/42
f 22/38/44 60/118/35 53/105/38
f 60/118/35 22/38/44 21/37/43
f 20/36/27 23/40/45 19/34/41
f 55/110/31 17/32/36 56/111/40
f 14/28/29 23/40/45 20/36/27
f 55/110/31 39/72/46 24/42/32
f 25/46/47 15/30/33 24/43/32
f 22/38/44 25/44/47 42/77/48
f 18/33/42 22/38/44 42/76/48
f 18/33/42 42/76/48 43/78/49
f 91/178/50 29/54/51 46/85/52
f 92/179/53 45/82/54 30/56/55
f 26/49/56 28/51/57 90/174/58
f 93/181/59 44/79/60 82/160/61
f 27/50/62 76/148/63 92/180/53
f 27/50/62 28/53/57 93/183/59
f 27/50/62 29/55/51 90/175/58
f 27/50/62 30/58/55 46/87/52
f 65/127/17 32/61/64 31/59/15
f 84/164/23 34/63/65 33/62/66
f 36/65/20 35/64/26 34/63/65
f 35/64/26 33/62/66 34/63/65
f 11/24/21 36/66/20 13/26/24
f 34/63/65 84/165/23 12/25/25
f 23/39/45 59/115/67 37/68/68
f 61/120/28 23/39/45 14/29/29
f 38/70/69 23/39/45 61/120/28
f 38/70/69 58/113/70 59/115/67
f 23/39/45 38/70/69 59/115/67
f 61/120/28 68/130/71 38/70/69
f 18/33/42 40/73/72 54/108/39
f 40/73/72 18/33/42 43/78/49
f 41/75/73 24/42/32 39/72/46
f 22/38/44 88/171/74 25/45/47
f 41/75/73 40/74/72 43/78/49
f 41/75/73 39/72/46 40/74/72
f 41/75/73 42/77/48 25/46/47
f 41/75/73 43/78/49 42/77/48
f 53/105/38 88/171/74 22/38/44
f 41/75/73 25/46/47 24/43/32
f 39/72/46 54/109/39 40/74/72
f 44/80/60 28/52/57 26/47/56
f 30/57/55 45/84/54 91/176/50
f 46/86/52 30/57/55 91/176/50
f 10/23/14 80/156/75 47/88/76
f 48/93/5 47/88/76 50/99/6
f 10/23/14 47/88/76 48/93/5
f 45/83/54 71/136/77 51/101/78
f 45/83/54 51/101/78 91/177/50
f 91/177/50 51/101/78 2/4/3
f 91/177/50 2/4/3 52/103/79
f 52/103/79 2/4/3 3/7/4
f 71/137/77 9/21/10 51/102/78
f 51/102/78 49/97/1 2/5/3
f 50/100/6 52/103/79 3/7/4
f 9/21/10 49/97/1 51/102/78
f 26/48/56 52/103/79 50/100/6
f 47/89/76 26/48/56 50/100/6
f 44/81/60 26/48/56 47/89/76
f 80/157/75 44/81/60 47/89/76
f 54/109/39 39/72/46 57/112/80
f 56/111/40 89/173/81 55/110/31
f 54/109/39 57/112/80 56/111/40
f 21/37/43 59/116/67 60/118/35
f 59/116/67 21/37/43 37/69/68
f 59/117/67 58/114/70 67/129/34
f 59/117/67 67/129/34 60/119/35
f 69/132/37 61/121/28 17/32/36
f 63/123/18 65/126/17 86/168/16
f 63/123/18 31/60/15 62/122/82
f 66/128/19 32/61/64 64/125/83
f 66/128/19 64/125/83 65/126/17
f 32/61/64 66/128/19 85/166/84
f 58/114/70 38/71/69 67/129/34
f 67/129/34 38/71/69 16/31/30
f 38/71/69 69/132/37 16/31/30
f 69/132/37 38/71/69 68/131/71
f 61/121/28 69/132/37 68/131/71
f 72/139/85 93/182/59 82/161/61
f 80/156/75 10/23/14 74/143/86
f 74/143/86 6/13/13 73/140/87
f 74/143/86 10/23/14 6/13/13
f 79/155/88 78/152/11 70/135/89
f 44/80/60 93/182/59 28/52/57
f 71/136/77 45/83/54 77/149/90
f 77/149/90 45/83/54 75/145/91
f 77/149/90 75/145/91 70/133/89
f 70/133/89 75/145/91 72/138/85
f 70/133/89 72/138/85 81/158/92
f 72/138/85 73/141/87 81/158/92
f 72/138/85 82/162/61 73/141/87
f 82/162/61 74/144/86 73/141/87
f 73/142/87 6/14/13 79/155/88
f 45/84/54 92/179/53 75/146/91
f 92/179/53 72/139/85 75/146/91
f 93/182/59 72/139/85 76/147/63
f 72/139/85 92/179/53 76/147/63
f 78/153/11 77/150/90 70/134/89
f 78/153/11 9/21/10 77/150/90
f 79/155/88 7/17/12 78/154/11
f 79/155/88 6/15/13 7/17/12
f 79/155/88 70/135/89 81/159/92
f 9/21/10 71/137/77 77/150/90
f 44/81/60 80/157/75 74/144/86
f 73/142/87 79/155/88 81/159/92
f 82/162/61 44/81/60 74/144/86
f 23/40/45 21/37/43 19/34/41
f 21/37/43 23/40/45 37/69/68
f 84/165/23 35/64/26 11/24/21
f 35/64/26 36/67/20 83/163/22
f 11/24/21 13/26/24 84/165/23
f 35/64/26 84/165/23 33/62/66
f 32/61/64 85/166/84 31/60/15
f 85/166/84 62/122/82 31/60/15
f 31/60/15 63/124/18 86/168/16
f 32/61/64 65/127/17 64/125/83
f 55/110/31 89/173/81 39/72/46
f 15/30/33 87/169/93 53/106/38
f 25/46/47 87/169/93 15/30/33
f 90/174/58 29/54/51 26/49/56
f 29/54/51 52/104/79 26/49/56
f 29/54/51 91/178/50 52/104/79
f 92/180/53 30/58/55 27/50/62
f 93/183/59 76/148/63 27/50/62
f 90/175/58 28/53/57 27/50/62
f 46/87/52 29/55/51 27/50/62
f 88/172/74 87/170/93 25/46/47
f 87/170/93 88/172/74 53/107/38
f 97/187/94 96/186/95 95/185/96
f 94/184/97 99/189/98 98/188/99
f 107/198/100 105/196/101 101/191/102
f 101/191/102 105/196/101 100/190/103
f 108/199/95 105/196/101 109/201/104
f 103/194/96 102/192/105 111/205/106
f 103/194/96 113/207/98 102/192/105
f 109/202/104 104/195/107 110/203/99
f 109/201/104 105/196/101 114/208/108
f 114/208/108 107/198/100 111/204/106
f 107/198/100 114/208/108 105/196/101
f 108/199/95 103/193/96 100/190/103
f 105/196/101 108/199/95 100/190/103
f 106/197/109 111/204/106 107/198/100
f 111/204/106 106/197/109 103/193/96
f 100/190/103 103/193/96 106/197/109
f 101/191/102 106/197/109 107/198/100
f 100/190/103 106/197/109 101/191/102
f 104/195/107 109/202/104 114/209/108
f 109/202/104 110/203/99 108/200/95
f 112/206/110 114/209/108 111/205/106
f 113/207/98 103/194/96 108/200/95
f 114/209/108 112/206/110 104/195/107
f 111/205/106 102/192/105 112/206/110
f 108/200/95 110/203/99 113/207/98
f 117/213/111 121/218/112 122/219/113
f 122/219/113 115/210/114 127/230/115
f 124/224/116 115/210/114 121/218/112
f 124/224/116 116/211/117 125/225/118
f 120/217/119 127/231/115 119/216/120
f 129/233/121 117/214/111 118/215/122
f 125/225/118 127/230/115 115/210/114
f 121/218/112 117/213/111 116/211/117
f 126/226/123 123/221/124 117/212/111
f 123/223/124 128/232/125 126/227/123
f 129/233/121 128/232/125 123/223/124
f 122/220/113 118/215/122 117/214/111
f 127/231/115 126/227/123 119/216/120
f 120/217/119 118/215/122 122/220/113
f 115/210/114 122/219/113 121/218/112
f 125/225/118 123/222/126 126/228/123
f 116/211/117 117/213/111 123/222/126
f 127/230/115 125/225/118 126/228/123
f 121/218/112 116/211/117 124/224/116
f 125/225/118 115/210/114 124/224/116
f 123/222/126 125/225/118 116/211/117
f 128/232/125 119/216/120 126/229/123
f 127/231/115 120/217/119 122/220/113
f 128/232/125 129/233/121 118/215/122
f 117/214/111 129/233/121 123/223/124
f 56/111/40 57/112/80 39/72/46 89/173/81
